<?xml version="1.0" encoding="UTF-8"?>
<svg id="Layer_2" data-name="Layer 2" xmlns="http://www.w3.org/2000/svg" viewBox="0 0 602.13 721.93">
  <defs>
    <style>
      .cls-1 {
        fill: #fff;
      }

      .cls-2 {
        fill: #845e44;
      }

      .cls-3 {
        fill: #705f46;
      }

      .cls-4 {
        fill: #c98447;
      }
    </style>
  </defs>
  <g id="_갈색" data-name="갈색">
    <g id="_털" data-name="털">
      <path class="cls-4" d="m588.32,476.18c1.67-4.69.19-10.68-4.19-15.06-3.89-3.89-9.04-5.49-13.43-4.64-6.58-7.29-16.33-10.24-24.65-6.6-3.73,1.63-6.68,4.37-8.72,7.78-8.49-2.27-17.33-1.61-25.09,2.58-7.73,4.17-13.13,11.15-15.9,19.45-3.9-2.33-7.98-3.78-12.1-4.16.02-.8.03-1.61.03-2.42,0-25.79-10.78-47.16-24.84-50.9,0-.2,0-.39,0-.58,0-18.97-3.96-36.09-10.31-48.29,3.54-2.23,6.37-5.49,8.07-9.36,4.74,5.15,11.31,8.35,18.59,8.35,10.3,0,19.2-6.4,23.46-15.7,12.52-.78,22.75-11,24.95-24.31,19.14-4.92,32.99-19.17,32.99-35.99,0-6.45-2.04-12.51-5.62-17.82,2.56-5.5,3.98-11.45,3.98-17.67,0-15.39-8.59-29.15-22.1-38.35.49-2.5.76-5.07.76-7.7,0-14.1-7.38-26.67-18.88-34.81,1.2-4.09,1.85-8.39,1.85-12.83,0-18.72-11.42-35.03-28.3-43.59-2.59-20.54-15.91-37.5-33.83-44.37-6.33-21.27-24.32-36.62-45.53-36.62-1.83,0-3.64.13-5.42.35-10.3-14.77-25.86-24.19-43.28-24.19-3.53,0-6.98.41-10.33,1.14-7.06-8.76-16.29-15.19-27.2-18.14-16.83-4.55-34.37.06-48.98,11.13-15.04-10.95-31.99-15.17-47.48-10.08-9.14,3-16.77,8.91-22.65,16.9-12.03-3.28-24.58-2.44-35.68,3.36-8.9,4.65-15.72,11.89-20.24,20.63-3.25-.72-6.62-1.11-10.08-1.11-23.84,0-43.47,17.97-46.1,41.11-14.18,7.42-24.36,23.77-25.63,43.14-16.34,7.87-27.62,24.59-27.62,43.94,0,2.43.18,4.82.53,7.16-12.4,8.68-20.68,24.39-20.68,42.34,0,.89.02,1.78.06,2.66C7.26,232.13,0,245.7,0,260.83c0,6.28,1.26,12.29,3.54,17.84-3.96,6.6-4.8,16.58-1.51,26.61,4.97,15.16,17.45,24.67,27.89,21.25.25-.08.49-.18.74-.27-.01.35-.03.71-.03,1.06,0,15.59,12.75,28.23,28.47,28.23.27,0,.54-.01.81-.02,4.1,7.97,12.4,13.42,21.97,13.42,4.9,0,9.47-1.43,13.31-3.9,4.4,7.53,12.56,12.59,21.9,12.59s17.95-5.33,22.25-13.2c5.35,2.88,10.89,5.57,16.59,8.05-13.35,1.17-24.49,8.57-27.83,19.94-2.7,9.19.29,18.95,7.14,26.69-8.6,4.6-15.1,12.39-17.34,22.18-2.95,12.9,2.26,25.91,12.41,34.36-6.05,4.41-10.45,10.52-12.17,17.84-2.91,12.38,2.54,25.07,13.07,33.74-2.2,4.58-3.43,9.72-3.43,15.15,0,9.84,4.06,18.72,10.58,25.09-8.37,7.74-13.08,19.1-11.75,31.17,1.17,10.63,6.8,19.69,14.86,25.62-2.7,5.77-3.81,12.13-2.9,18.62,1.44,10.25,7.64,18.82,16.46,24.37-1.16,3.45-1.8,7.15-1.8,10.99,0,19.06,15.45,34.52,34.52,34.52,5.22,0,10.16-1.16,14.59-3.24,3.22,5.21,7.91,8.5,13.14,8.5,4.49,0,8.58-2.42,11.69-6.41,3.34,2.09,7.21,3.29,11.32,3.29,6.74,0,12.8-3.19,17.01-8.28.22.08.44.15.66.23,2.46,1.86,5.63,2.99,9.08,2.99.17,0,.34-.02.51-.02,5.75,1.56,11.62,2.77,17.59,3.62,3.01,1.57,6.63,2.49,10.53,2.49,2.51,0,4.89-.38,7.08-1.07.99.02,1.99.04,2.99.04,2.23,0,4.44-.07,6.65-.17,4.77,4.42,11.56,7.19,19.09,7.19,8.74,0,16.48-3.72,21.22-9.43,2.77.78,5.68,1.2,8.69,1.2,8.57,0,16.35-3.36,22.1-8.84,6.77,6.28,16.56,10.96,27.87,12.57,14.42,2.06,27.88-1.35,36.5-8.22,25.75,4.22,49.29-6.55,54.13-25.64,1.81-7.12.77-14.47-2.52-21.33,7.5-6.27,13.27-14.4,16.46-24.02,5.24-15.8,2.47-32.53-6.18-46.62,6.15-4.41,11.01-11.67,14.16-20.72,4.6,3.1,10.45,4.95,16.83,4.95,9.55,0,17.94-4.17,22.69-10.44.05.02.11.04.16.06,10.28,3.41,22.63-5.95,27.59-20.9,1.92-5.8,2.45-11.58,1.77-16.69,9.69-8.69,13.67-22.8,8.95-35.93-2.37-6.58-6.58-11.95-11.82-15.75Z"/>
    </g>
    <g id="_테두리" data-name="테두리">
      <path class="cls-2" d="m106.71,322.22c-10.55-28.08,9.66-54.08,9.66-54.08,4.61,2.67,5.35-1.04,5.35-1.04-5.5-19.91-4.16-36.99-4.16-36.99-.3-31.65,21.54-53.93,21.54-53.93,2.82-14.11-9.95-6.98-9.95-6.98-35.66,27.93-20.5,94.34-20.5,94.34-28.67,20.65-13.37,63.59-13.37,63.59,6.24,29.42,49.47,45.46,49.47,45.46,24.81,8.02,13.67-4.01,13.67-4.01-40.56-11.14-51.7-46.35-51.7-46.35Z"/>
      <path class="cls-2" d="m461.5,303.35c-2.82-36.85-16.34-39.37-16.34-39.37,4.75-16.79,2.38-43.83,2.38-43.83-.35-8.33-2.28-24.13-12.91-39.33-3.68-5.26-7.65-9.38-11.27-12.55-1.97-2.12-5.15-2.29-7.05-.71-2.15,1.79-2.34,5.56.11,7.81,3.15,3.83,7.27,9.45,11.07,16.86,2.01,3.93,3.26,7.05,3.75,8.32,1.98,5.09,4.35,12.7,5.35,22.51.59,6.31.86,13.75.33,22.06-.54,8.52-1.8,16.03-3.23,22.32,3.46,3.34,15.19,15.51,16.68,34.62,1.69,21.76-11.13,36.81-14.67,40.97-8.68,10.19-18.69,15.16-24.33,17.46-3.1,1.2-4.12,4.54-2.99,6.45.86,1.45,3.04,2.2,5.22,1.57,4.3-.77,9.66-2.24,15.37-5.11,2.28-1.15,4.31-2.37,6.1-3.58,30.9-21.1,26.45-56.46,26.45-56.46Z"/>
      <path class="cls-2" d="m399.79,373.92c-4.26-11.39-9.81-.99-9.81-.99-3.86,10.7-9.31,11.69-9.31,11.69-15.06,6.14-33.38,0-33.38,0-.17-.36-2.6-5.24-8.04-5.95-4.37-.57-7.49,1.96-8.01,2.4-1.57,1.44-11.39,10.19-25.3,8.62-8.47-.96-14.25-5.26-16.65-7.29-.45-.35-2.51-1.88-5.43-1.61-2.44.23-4.02,1.58-4.51,2.03-3.05,2.39-8.75,6.11-16.66,7.23-17.54,2.47-30.32-10.12-31.96-11.79-1.32-.91-3.29-1.95-5.8-2.19-7.96-.77-13.33,7.24-13.55,7.57-3.29,1.14-11.89,3.59-21.63.32-4.25-1.43-7.48-3.52-9.69-5.27-3.32-1.6-6.59-1.32-8.08.43-1.37,1.61-1.04,4.09-.71,4.52,2.53,3.32,11.69,8.22,11.69,8.22,23.92,10.94,37.54-3.57,37.54-3.57,2.87-2.38,7.73.4,7.73.4,3.58,1.77,7.4,3.88,11.35,6.39,2.31,1.47,4.47,2.94,6.48,4.41,6.94,6.4,16.37,8.45,24.07,5.2,6.23-2.63,9.28-7.87,10.3-9.86.84-.8,2.09-1.74,3.77-2.28,5.47-1.76,10.46,2.27,10.97,2.7,3.39,1.67,16.8,7.78,30.4,2.18,3.2-1.32,5.83-3.05,7.94-4.78.45-.43,2.69-2.51,5.65-2.15.75.09,1.39.32,1.91.57,5.25,6.54,32.88,5.05,32.88,5.05,24.37-1.68,25.85-22.19,25.85-22.19Z"/>
      <path class="cls-2" d="m411.21,496.35c8.05,8.22-6.66,47.35-6.66,47.35-16.74.89-.79,42.29-.79,42.29,2.08,12.28-9.41,22.38-9.41,22.38-14.86,8.72-5.35,33.68-5.35,33.68,4.38,3.33-1.3,16.25-1.75,17.26-.29.15-.59.3-.92.47-9.41,4.75-3.57,22.09-3.57,22.09.79,2.87-10.5,13.17-10.5,13.17-2.87,6.54,0,10.4,0,10.4,4.75,2.97,9.9-.69,9.9-.69,7.13-2.48,9.9-20.9,9.9-20.9,9.11-7.23,8.22-38.73,8.22-38.73-6.04-19.41,4.06-29.02,4.06-29.02,13.27-11.19,6.86-63.81,6.86-63.81,6.69-4.09,12.41-21.1,12.41-21.1,8.69-17.9-2.01-39.82-2.01-39.82-9.36-5.57-10.4,4.98-10.4,4.98Z"/>
      <path class="cls-2" d="m285.1,620.65c2.97-2.38,5.84-16.34,5.84-16.34-2.77-12.68-10-5.05-10.4-4.95l-1.39,5.65c-2.28-10.6-10.1-10-10.1-10-11.49.5.4,16.74.4,16.74,5.25,5.45,3.86,16.84,3.86,16.84,11.09,58.83-7.13,71.51-7.13,71.51-3.57,11.59,12.48,5.25,12.48,5.25,5.35,10.6,11.09,3.07,11.09,3.07-6.93-5.45-1.68-48.53-1.68-48.53,9.71-15.55-2.97-39.22-2.97-39.22Z"/>
    </g>
    <g id="_눈코입" data-name="눈코입">
      <path class="cls-3" d="m269.25,293.84s-34.01-25.07-2.53-25.07l22.03.33s28.42-1.16-2.97,25.1c0,0-6.67,19.18,17.5,20.22,0,0,5.04.92,9.05-.94,4.53-2.1,8.96-2.71,8.96,1.82,0,0-22.88,20.23-42.38-4.27,0,0-16.64,18.6-42.2,5.82,0,0-1.56-.39-3.21-2.04-2.31-2.31-1.23-5.77,6.27-1.99.83.42,1.94.67,3.06,1.11,0,0,33.78,6.07,26.4-20.08Z"/>
      <circle class="cls-3" cx="196.22" cy="242.87" r="28.08"/>
      <circle class="cls-1" cx="197.92" cy="238.6" r="10.14"/>
      <g>
        <circle class="cls-3" cx="360.8" cy="242.87" r="28.08"/>
        <circle class="cls-1" cx="357.82" cy="238.6" r="10.14"/>
      </g>
    </g>
  </g>
</svg>